<?xml version="1.0" encoding="UTF-8"?>
<svg xmlns="http://www.w3.org/2000/svg" xmlns:xlink="http://www.w3.org/1999/xlink" width="35px" height="40px" viewBox="0 0 35 40" version="1.1">
<g id="surface1">
<path style=" stroke:none;fill-rule:nonzero;fill:rgb(34,34,34);fill-opacity:1;" d="M 12.5 31.25 C 12.5 31.9375 11.9375 32.5 11.25 32.5 C 10.5625 32.5 10 31.9375 10 31.25 L 10 15 C 10 14.3125 10.5625 13.75 11.25 13.75 C 11.9375 13.75 12.5 14.3125 12.5 15 Z M 18.75 31.25 C 18.75 31.9375 18.1875 32.5 17.5 32.5 C 16.8125 32.5 16.25 31.9375 16.25 31.25 L 16.25 15 C 16.25 14.3125 16.8125 13.75 17.5 13.75 C 18.1875 13.75 18.75 14.3125 18.75 15 Z M 25 31.25 C 25 31.9375 24.4375 32.5 23.75 32.5 C 23.0625 32.5 22.5 31.9375 22.5 31.25 L 22.5 15 C 22.5 14.3125 23.0625 13.75 23.75 13.75 C 24.4375 13.75 25 14.3125 25 15 Z M 24.804688 1.949219 L 27.671875 6.25 L 33.125 6.25 C 34.164062 6.25 35 7.089844 35 8.125 C 35 9.164062 34.164062 10 33.125 10 L 32.5 10 L 32.5 33.75 C 32.5 37.203125 29.703125 40 26.25 40 L 8.75 40 C 5.296875 40 2.5 37.203125 2.5 33.75 L 2.5 10 L 1.875 10 C 0.839844 10 0 9.164062 0 8.125 C 0 7.089844 0.839844 6.25 1.875 6.25 L 7.328125 6.25 L 10.195312 1.949219 C 11.007812 0.730469 12.375 0 13.835938 0 L 21.164062 0 C 22.625 0 23.992188 0.730469 24.804688 1.949219 Z M 11.835938 6.25 L 23.164062 6.25 L 21.679688 4.027344 C 21.5625 3.855469 21.367188 3.75 21.164062 3.75 L 13.835938 3.75 C 13.632812 3.75 13.367188 3.855469 13.320312 4.027344 Z M 6.25 33.75 C 6.25 35.132812 7.371094 36.25 8.75 36.25 L 26.25 36.25 C 27.632812 36.25 28.75 35.132812 28.75 33.75 L 28.75 10 L 6.25 10 Z M 6.25 33.75 "/>
</g>
</svg>
