<?xml version="1.0" encoding="UTF-8"?>
<svg xmlns="http://www.w3.org/2000/svg" xmlns:xlink="http://www.w3.org/1999/xlink" width="63px" height="60px" viewBox="0 0 62 60" version="1.1">
<g id="surface1">
<path style=" stroke:none;fill-rule:evenodd;fill:rgb(0%,65.882353%,41.960784%);fill-opacity:1;" d="M 21.328125 55.378906 C 24.433594 58.066406 27.929688 57.703125 31.8125 54.289062 C 33.339844 52.777344 34.480469 50.902344 35.234375 48.664062 C 35.621094 47.992188 35.792969 48.011719 35.746094 48.722656 C 35.207031 51.226562 34.070312 53.242188 32.335938 54.761719 C 29.796875 56.957031 27.140625 57.902344 24.367188 57.597656 C 22.347656 57.3125 21.335938 56.570312 21.328125 55.378906 M 12.265625 35.558594 C 12.265625 35.917969 12.121094 36.210938 11.941406 36.210938 C 11.761719 36.210938 11.617188 35.917969 11.617188 35.558594 C 11.617188 35.195312 11.761719 34.902344 11.941406 34.902344 C 12.121094 34.902344 12.265625 35.195312 12.265625 35.558594 M 54.757812 42.476562 C 55.203125 42.570312 55.675781 42.59375 56.179688 42.539062 C 55.984375 43.472656 55.792969 44.128906 55.605469 44.515625 C 55.410156 43.933594 55.128906 43.253906 54.757812 42.476562 M 53.996094 47.210938 C 54.242188 47.214844 54.5 47.179688 54.253906 47.535156 C 54.191406 47.707031 53.96875 48.070312 53.582031 48.625 C 53.136719 49.207031 52.867188 49.160156 52.78125 48.492188 C 52.78125 48.492188 52.5625 47.207031 52.5625 47.207031 C 53.296875 47.203125 53.773438 47.203125 53.996094 47.210938 M 51.820312 50.8125 C 54.15625 51.28125 55.609375 52.058594 56.707031 53.929688 C 57.667969 55.570312 58.417969 56.539062 59.875 57.832031 C 60.445312 58.21875 60.402344 58.421875 59.742188 58.4375 C 57.59375 58.5625 55.691406 58.15625 54.046875 57.222656 C 52.722656 56.613281 51.40625 55.367188 50.375 54.285156 C 50.03125 53.925781 50.019531 53.300781 50.707031 53.828125 C 52.621094 56.136719 54.410156 57.328125 56.070312 57.40625 C 56.636719 57.445312 56.425781 57.0625 56.097656 56.875 C 56.097656 56.875 53.699219 55.527344 53.699219 55.527344 C 53.042969 55.109375 53.609375 55.109375 53.996094 55.191406 C 54.289062 55.25 54.625 55.273438 54.996094 55.261719 C 55.296875 55.25 55.277344 55.25 55.019531 55.046875 C 54.71875 54.816406 54.140625 54.457031 53.285156 53.964844 C 52.980469 53.769531 52.980469 53.65625 53.285156 53.625 C 53.285156 53.625 54.78125 53.601562 54.78125 53.601562 C 55.042969 53.597656 55.171875 53.59375 54.863281 53.34375 C 54.5 53.046875 53.621094 52.792969 53.246094 52.589844 C 52.523438 52.195312 51.988281 51.898438 51.640625 51.695312 C 50.8125 51.089844 50.871094 50.792969 51.820312 50.8125 M 34.085938 37.058594 C 34.394531 37.058594 34.648438 37.355469 34.648438 37.722656 C 34.648438 38.085938 34.394531 38.382812 34.085938 38.382812 C 33.773438 38.382812 33.523438 38.085938 33.523438 37.722656 C 33.523438 37.355469 33.773438 37.058594 34.085938 37.058594 M 15.308594 27.117188 C 15.605469 27.117188 15.84375 27.371094 15.84375 27.6875 C 15.84375 28 15.605469 28.257812 15.308594 28.257812 C 15.015625 28.257812 14.777344 28 14.777344 27.6875 C 14.777344 27.371094 15.015625 27.117188 15.308594 27.117188 M 9.859375 30.195312 C 10.117188 30.195312 10.324219 30.417969 10.324219 30.695312 C 10.324219 30.972656 10.117188 31.199219 9.859375 31.199219 C 9.601562 31.199219 9.390625 30.972656 9.390625 30.695312 C 9.390625 30.417969 9.601562 30.195312 9.859375 30.195312 M 9.644531 21.257812 C 9.914062 21.257812 10.132812 21.472656 10.132812 21.742188 C 10.132812 22.011719 9.914062 22.230469 9.644531 22.230469 C 9.371094 22.230469 9.152344 22.011719 9.152344 21.742188 C 9.152344 21.472656 9.371094 21.257812 9.644531 21.257812 M 10.703125 24.191406 C 10.921875 24.191406 11.097656 24.359375 11.097656 24.570312 C 11.097656 24.78125 10.921875 24.953125 10.703125 24.953125 C 10.484375 24.953125 10.308594 24.78125 10.308594 24.570312 C 10.308594 24.359375 10.484375 24.191406 10.703125 24.191406 M 43.308594 3.964844 C 43.667969 6.558594 43.269531 9.347656 42.113281 12.339844 C 41.304688 13.890625 40.589844 14.308594 40.453125 16.1875 C 40.371094 17.332031 40.652344 18.242188 41.761719 17.828125 C 42.796875 17.4375 42.78125 17.796875 42.0625 18.320312 C 41.195312 18.949219 40.554688 18.941406 41.476562 19.878906 C 42.105469 20.421875 43.125 21.113281 44.542969 21.964844 C 48.523438 23.921875 50.957031 25.335938 51.839844 26.207031 C 59.304688 33.003906 58.890625 41.820312 54.234375 50.1875 C 56.066406 51.257812 57.253906 52.382812 57.800781 53.554688 C 58.929688 55.476562 59.992188 56.894531 60.984375 57.800781 C 62.40625 58.878906 62.328125 59.546875 60.757812 59.8125 C 57.824219 60.265625 55.28125 59.769531 53.132812 58.320312 C 51.535156 57.332031 50.203125 56.0625 49.136719 54.515625 C 48.863281 54.175781 48.566406 54.140625 48.238281 54.417969 C 46.363281 56.148438 43.734375 57.261719 40.351562 57.75 C 37.582031 58.214844 34.289062 58.320312 30.46875 58.066406 C 27.492188 59.0625 24.796875 59.070312 22.378906 58.089844 C 20.667969 57.136719 19.984375 55.964844 20.320312 54.574219 C 20.703125 53.414062 21.617188 52.289062 23.058594 51.195312 C 24.050781 50.449219 24.832031 49.230469 24.484375 47.929688 C 23.78125 47.839844 23.023438 47.527344 22.210938 46.984375 C 21.273438 46.65625 20.707031 46.988281 20.511719 47.980469 C 19.980469 53.785156 13.976562 50.765625 15.066406 47.324219 C 13.367188 47.15625 13.078125 45.800781 11.835938 45.191406 C 10.222656 43.960938 9.363281 42.285156 9.261719 40.15625 C 9.242188 39.824219 9.226562 39.414062 9.253906 39.082031 C 9.335938 38.027344 9.878906 36.921875 10.113281 35.832031 C 10.039062 35.050781 10.214844 34.546875 10.640625 34.328125 C 10.796875 33.84375 11.070312 33.289062 11.464844 32.667969 C 11.695312 32.003906 10.792969 32.46875 10.464844 32.589844 C 10.035156 32.75 9.65625 32.972656 9.328125 33.257812 C 8.109375 34.316406 6.617188 33.132812 7 31.878906 C 7.902344 31 8.746094 30.214844 9.53125 29.519531 C 9.761719 29.3125 9.777344 29.238281 10.085938 29.1875 C 11.355469 28.980469 12.007812 29.738281 12.050781 31.46875 C 12.765625 29.863281 13.207031 28.75 13.378906 28.121094 C 13.636719 27.472656 13.796875 26.390625 13.859375 24.871094 C 13.242188 23.878906 13.21875 22.828125 13.785156 21.71875 C 12.929688 21.765625 12.179688 21.667969 11.535156 21.429688 C 11.140625 22 11.117188 22.667969 11.464844 23.441406 C 12.226562 24.398438 12.363281 25.140625 11.871094 25.671875 C 11.078125 26.308594 10.417969 26.289062 9.886719 25.625 C 9.648438 25.261719 9.578125 24.730469 9.667969 24.035156 C 9.488281 23.824219 9.238281 23.640625 8.914062 23.476562 C 8.472656 23.230469 8.269531 22.902344 8.300781 22.496094 C 8.367188 21.578125 8.863281 20.542969 7.15625 20.691406 C 3.453125 20.246094 1.175781 19.621094 0.320312 18.808594 C -0.390625 18.136719 0.222656 17.359375 0.816406 16.84375 C 0.703125 17.539062 1.058594 18.089844 1.878906 18.496094 C 3.636719 19.464844 7.355469 20.089844 13.03125 20.375 C 12.816406 19.851562 12.589844 19.425781 12.347656 19.101562 C 6.785156 18.445312 3.945312 17.8125 3.828125 17.199219 C 3.679688 16.789062 4.136719 16.472656 5.207031 16.253906 C 4.890625 16.667969 5.003906 16.949219 5.539062 17.089844 C 6.898438 17.621094 9.054688 17.960938 12.003906 18.109375 C 12.003906 18.109375 11.992188 17.8125 11.992188 17.8125 C 10.023438 17.671875 8.746094 17.390625 8.15625 16.96875 C 8.011719 16.363281 8.621094 15.957031 9.984375 15.746094 C 9.238281 16.1875 9.152344 16.523438 9.722656 16.75 C 10.203125 16.972656 10.964844 17.105469 12.007812 17.152344 C 12.101562 14.914062 13.125 13.210938 15.085938 12.035156 C 15.289062 10.265625 15.628906 8.792969 16.113281 7.621094 C 16.585938 6.917969 16.980469 7.015625 17.285156 7.914062 C 17.285156 7.914062 16.808594 12.230469 16.808594 12.230469 C 18.25 13.449219 18.910156 15 18.792969 16.882812 C 20.8125 16.714844 21.570312 16.25 21.066406 15.488281 C 21.792969 15.585938 22.835938 15.953125 21.835938 16.628906 C 21.175781 17.078125 20.097656 17.386719 18.792969 17.5625 C 18.734375 17.792969 18.640625 18.011719 18.519531 18.222656 C 22.007812 18.171875 24.089844 17.859375 24.757812 17.289062 C 25.035156 17.046875 25.097656 16.765625 24.941406 16.453125 C 25.503906 16.796875 26.234375 17.359375 25.449219 17.910156 C 24.96875 18.242188 23.648438 18.542969 21.484375 18.804688 C 20.335938 18.972656 19.28125 19.011719 18.3125 18.925781 C 18.007812 19.515625 17.691406 19.992188 17.367188 20.351562 C 21.773438 20.289062 25.488281 19.945312 28.519531 19.320312 C 31.011719 19.007812 31.226562 18.21875 29.167969 16.945312 C 29.167969 16.945312 31.011719 16.652344 31.011719 16.652344 C 28.625 14.578125 26.878906 11.964844 25.773438 8.808594 C 33.667969 14.140625 38.511719 12.175781 42.3125 0 C 42.894531 0.0742188 43.226562 1.394531 43.308594 3.964844 M 41.941406 7.632812 C 41.648438 11.613281 39.195312 14.644531 39.164062 17.417969 C 35.167969 16.308594 35.023438 17.113281 32.089844 13.210938 C 31.835938 12.632812 31.945312 12.535156 32.414062 12.917969 C 33.070312 13.414062 33.863281 14.226562 34.796875 15.355469 C 35.0625 15.632812 35.378906 15.910156 35.722656 16.160156 C 36.242188 16.558594 36.308594 16.269531 36.066406 15.84375 C 36.066406 15.84375 35.828125 15.398438 35.828125 15.398438 C 35.390625 14.578125 35.109375 13.914062 34.976562 13.402344 C 34.640625 12.09375 35.632812 11.84375 36.117188 13.023438 C 36.34375 13.570312 36.53125 14.285156 36.675781 15.167969 C 36.734375 16.082031 37.527344 16.179688 37.53125 15.105469 C 37.496094 13.074219 37.5625 11.882812 37.722656 11.53125 C 38 11.671875 38.160156 12.417969 38.199219 13.777344 C 38.222656 14.65625 38.472656 14.566406 38.773438 13.777344 C 39 13.183594 39.210938 11.902344 39.410156 9.941406 C 39.425781 9.710938 39.554688 9.726562 39.546875 9.957031 C 39.546875 9.957031 39.4375 12.515625 39.4375 12.515625 C 39.480469 13.550781 39.6875 13.609375 40.054688 12.691406 C 40.683594 11.050781 41.199219 9.339844 41.597656 7.550781 C 41.800781 6.785156 42.058594 6.855469 41.941406 7.632812 M 17.304688 17.886719 C 18.769531 17.59375 18.414062 18.144531 17.847656 18.183594 C 16.085938 18.308594 14.351562 18.253906 12.640625 18.019531 C 13.878906 18 16.121094 18.125 17.304688 17.886719 M 13.75 19.113281 C 13.75 19.113281 16.777344 19.089844 16.777344 19.089844 C 16.582031 19.761719 15.96875 20.230469 15.273438 20.234375 C 14.578125 20.238281 13.960938 19.785156 13.75 19.113281 M 14.847656 13.332031 C 15.117188 13.429688 15.136719 14.097656 14.882812 14.824219 C 14.632812 15.546875 14.210938 16.054688 13.9375 15.957031 C 13.667969 15.859375 13.652344 15.191406 13.902344 14.46875 C 14.152344 13.742188 14.574219 13.234375 14.847656 13.332031 M 20.289062 21.289062 C 24.539062 21.132812 28.0625 20.589844 30.863281 19.671875 C 31.90625 19.351562 32.667969 18.804688 33.148438 18.035156 C 35.359375 18.539062 37.421875 18.636719 39.289062 18.324219 C 39.542969 18.730469 38.273438 19.273438 35.484375 19.949219 C 31.558594 21.183594 26.621094 21.9375 20.667969 22.214844 C 20.671875 21.859375 20.527344 21.527344 20.289062 21.289062 M 47.074219 24.5 C 47.84375 24.859375 47.230469 25.402344 48.519531 25.457031 C 49.554688 25.457031 48.378906 26.6875 49.273438 26.609375 C 49.734375 26.558594 50.625 26.429688 50.957031 26.816406 C 51.082031 26.960938 51.195312 27.125 51.335938 27.273438 C 52.082031 28.050781 50.878906 27.789062 50.394531 27.636719 C 49.597656 27.261719 49.308594 27.964844 50.070312 28.292969 C 51.058594 28.675781 50.742188 28.773438 50.824219 29.371094 C 50.859375 29.644531 51.179688 29.714844 51.78125 29.589844 C 52.027344 29.539062 52.289062 29.523438 52.566406 29.542969 C 53.21875 29.695312 53.816406 30.304688 54.367188 31.359375 C 54.542969 31.703125 54.925781 32.363281 54.160156 31.953125 C 53.992188 31.875 53.835938 31.804688 53.691406 31.738281 C 52.019531 30.960938 49.722656 30.523438 52.359375 31.980469 C 52.621094 32.125 53.136719 32.464844 52.746094 32.773438 C 52.464844 33 52.132812 33.246094 51.753906 33.511719 C 50.167969 32.570312 49.914062 32.695312 50.992188 33.890625 C 51.128906 34.058594 51.128906 34.199219 50.992188 34.324219 C 49.855469 35.625 50.164062 35.410156 51.742188 34.660156 C 53.421875 35.949219 54.945312 37.859375 56.3125 40.382812 C 56.667969 41.046875 56.535156 41.125 56.148438 41.230469 C 55.753906 41.445312 55.121094 41.589844 54.238281 41.660156 C 53.417969 40.28125 52.5 39.082031 51.484375 38.066406 C 50.457031 37.042969 49.933594 37.371094 50.757812 38.414062 C 51.65625 39.464844 52.367188 40.445312 52.894531 41.351562 C 53.136719 41.773438 53.027344 41.851562 52.503906 41.847656 C 51.964844 41.808594 51.679688 42.046875 51.648438 42.5625 C 51.648438 42.5625 53.5625 42.582031 53.5625 42.582031 C 53.800781 43.15625 54.589844 45.21875 54.453125 45.8125 C 54.410156 45.992188 54.300781 46.09375 54.125 46.121094 C 54.125 46.121094 52.269531 46.109375 52.269531 46.109375 C 51.832031 44.839844 51.445312 43.953125 51.109375 43.441406 C 50.4375 42.640625 50.191406 42.742188 50.367188 43.746094 C 50.367188 43.746094 51.273438 45.855469 51.273438 45.855469 C 50.835938 45.902344 50.066406 45.769531 48.957031 45.453125 C 48.460938 45.3125 48.347656 45.472656 48.613281 45.9375 C 48.980469 46.351562 49.957031 46.707031 51.546875 47.011719 C 51.699219 47.386719 51.839844 47.84375 51.945312 48.347656 C 52.308594 49.722656 51.042969 50.542969 50.222656 48.484375 C 49.976562 47.976562 49.734375 47.96875 49.492188 48.460938 C 49.328125 49.121094 49.296875 49.871094 49.398438 50.714844 C 49.535156 52 48.425781 52.804688 46.078125 53.128906 C 45.460938 53.191406 45.429688 53.578125 46.046875 53.863281 C 46.335938 54.066406 46.363281 54.21875 46.125 54.324219 C 46.125 54.324219 45.53125 54.679688 45.53125 54.679688 C 44.160156 55.554688 42.410156 56.175781 40.289062 56.542969 C 39.589844 56.625 39.554688 56.457031 40.1875 56.039062 C 41.765625 54.753906 42.976562 53.382812 43.816406 51.933594 C 44.414062 51.09375 44.992188 50.238281 45.578125 49.386719 C 46.375 48.226562 46.730469 46.933594 46.640625 45.515625 C 46.429688 43.296875 45.109375 40.855469 42.6875 38.195312 C 42.1875 37.753906 42.214844 37.351562 42.777344 36.980469 C 45.40625 35.097656 46.921875 33.09375 47.324219 30.96875 C 47.542969 28.535156 47.152344 26.496094 46.144531 24.851562 C 45.6875 24.316406 45.351562 24.347656 45.140625 24.941406 C 45.082031 25.683594 44.8125 25.722656 44.332031 25.058594 C 43.792969 24.351562 43.011719 23.671875 41.984375 23.019531 C 41.171875 22.601562 40.53125 22.183594 40.070312 21.773438 C 39.191406 20.890625 38.941406 20.164062 39.199219 20.050781 C 39.589844 19.875 40.511719 21.015625 40.972656 21.285156 C 43.097656 22.523438 45.132812 23.597656 47.074219 24.5 M 36.863281 21.066406 C 37.117188 20.175781 37.722656 21.019531 37.996094 21.332031 C 38.5 21.90625 39.074219 22.394531 39.722656 22.796875 C 41.21875 23.636719 42.398438 24.546875 43.261719 25.523438 C 44.261719 26.738281 44.710938 28.417969 44.617188 30.558594 C 44.46875 32.667969 43.539062 34.554688 41.828125 36.222656 C 41.628906 36.441406 41.414062 36.609375 41.136719 36.570312 C 40.496094 36.332031 39.433594 35.945312 40.464844 35.324219 C 44.746094 32.582031 42.035156 29.109375 43.742188 29.25 C 44.011719 29.25 44.078125 29.132812 43.945312 28.894531 C 43.386719 28.46875 43.238281 28.03125 43.503906 27.585938 C 43.613281 27.03125 43.449219 26.898438 43.011719 27.1875 C 42.855469 27.542969 42.570312 27.832031 42.152344 28.046875 C 41.707031 28.148438 41.410156 27.875 41.265625 27.234375 C 41.300781 26.878906 41.457031 26.539062 41.730469 26.222656 C 42.066406 25.828125 42.007812 26.0625 41.664062 25.769531 C 41.480469 25.613281 41.378906 25.410156 41.355469 25.160156 C 41.332031 24.917969 41.429688 24.746094 41.042969 24.96875 C 40.6875 25.171875 39.488281 26.933594 39.507812 25.089844 C 39.628906 24.339844 39.382812 24.113281 38.765625 24.40625 C 38.316406 24.703125 37.886719 24.558594 37.472656 23.972656 C 36.882812 23.058594 36.679688 22.089844 36.863281 21.066406 M 20.328125 23.085938 C 25.324219 23.351562 30.082031 22.75 34.921875 21.292969 C 35.1875 22.703125 36.144531 24.367188 37.792969 26.289062 C 38.886719 27.28125 41.617188 29.789062 41.773438 31.34375 C 41.984375 33.421875 39.121094 35.035156 37.625 34.144531 C 36.277344 33.429688 34.832031 33.332031 33.292969 33.855469 C 32.660156 34.40625 31.917969 34.441406 31.066406 33.949219 C 29.164062 33.25 27.082031 33 24.820312 33.199219 C 23.304688 33.535156 22.796875 33.503906 21.347656 33.4375 C 20.652344 33.40625 19.898438 33.484375 19.078125 33.671875 C 18.984375 33.039062 18.457031 32.566406 17.824219 32.546875 C 17.195312 32.53125 16.640625 32.976562 16.515625 33.601562 C 16.390625 34.230469 16.730469 34.859375 17.316406 35.089844 C 17.5 35.242188 17.511719 35.449219 17.351562 35.722656 C 17.125 37.304688 18.066406 39.195312 20.175781 41.394531 C 21.921875 43.042969 23.261719 44.675781 24.199219 46.292969 C 23.179688 45.824219 21.800781 45.070312 20.65625 45.402344 C 19.851562 45.632812 19.210938 46.308594 19.078125 47.371094 C 18.882812 51.570312 14.421875 49.277344 16.304688 46.398438 C 16.496094 46.105469 16.421875 45.699219 16.320312 45.347656 C 16.144531 44.71875 15.640625 44.242188 15.007812 44.097656 C 14.554688 43.9375 14.289062 44.609375 14.648438 44.921875 C 14.851562 44.929688 15.027344 45.066406 15.089844 45.261719 C 15.152344 45.453125 15.089844 45.667969 14.933594 45.796875 C 14.777344 45.925781 14.558594 45.945312 14.382812 45.839844 C 14.207031 45.738281 14.113281 45.535156 14.148438 45.335938 C 14.03125 44.753906 13.125 44.859375 12.542969 44.339844 C 10.46875 42.476562 9.929688 40.050781 10.933594 37.066406 C 11.507812 37.679688 12.441406 37.777344 13.128906 37.292969 C 13.8125 36.8125 14.046875 35.890625 13.679688 35.132812 C 13.3125 34.371094 12.449219 34 11.652344 34.253906 C 12.832031 31.820312 13.644531 30.089844 14.09375 29.066406 C 14.496094 29.65625 15.210938 29.941406 15.902344 29.785156 C 16.59375 29.628906 17.121094 29.066406 17.238281 28.359375 C 17.355469 27.648438 17.035156 26.941406 16.433594 26.566406 C 15.828125 26.191406 15.058594 26.226562 14.492188 26.652344 C 14.386719 26.285156 14.375 25.777344 14.457031 25.136719 C 15.03125 24.5625 15.402344 23.433594 15.566406 21.746094 C 15.707031 21.515625 15.996094 21.386719 16.429688 21.355469 C 16.429688 21.355469 18.417969 21.378906 18.417969 21.378906 C 18.332031 21.480469 18.261719 21.597656 18.210938 21.730469 C 17.984375 22.304688 18.195312 22.964844 18.714844 23.296875 C 19.230469 23.628906 19.910156 23.539062 20.328125 23.085938 M 52.503906 34.210938 C 53.550781 33.5625 54.453125 33.621094 55.207031 34.390625 C 55.472656 34.738281 55.675781 35.007812 55.8125 35.199219 C 56.179688 35.714844 56.460938 36.84375 55.449219 36.453125 C 54.695312 36.199219 53.714844 35.449219 52.503906 34.210938 M 42.132812 40.53125 C 43.195312 41.484375 43.96875 42.34375 44.453125 43.109375 C 42.90625 42.421875 41.4375 41.808594 40.242188 41.449219 C 39.925781 41.363281 39.71875 41.082031 39.621094 40.613281 C 39.449219 39.082031 38.917969 37.804688 38.027344 36.773438 C 36.421875 35 34.839844 34.71875 33.277344 35.925781 C 32.722656 36.257812 32.523438 35.933594 32.964844 35.378906 C 33.726562 34.753906 34.636719 34.527344 35.695312 34.703125 C 37.019531 35.054688 38.398438 36.472656 39.835938 38.957031 C 40.21875 39.546875 40.742188 39.378906 40.46875 38.53125 C 40.46875 38.53125 40.242188 37.792969 40.242188 37.792969 C 40.117188 37.527344 40.207031 37.476562 40.503906 37.648438 C 41.078125 38.234375 41.675781 38.769531 42.300781 39.253906 C 42.632812 39.53125 42.613281 39.722656 42.242188 39.828125 C 41.785156 39.84375 41.75 40.078125 42.132812 40.53125 M 34.074219 43.449219 C 38.003906 41.996094 41.550781 42.160156 44.703125 43.941406 C 45.132812 44.183594 45.089844 44.152344 45.238281 44.632812 C 46.207031 47.722656 44.691406 50.074219 40.410156 51.761719 C 39.289062 52.203125 39.40625 52.707031 40.558594 52.515625 C 41.335938 52.386719 41.859375 52.359375 42.132812 52.441406 C 39.496094 56.058594 36.167969 57.480469 32.152344 56.707031 C 34.664062 54.753906 36.265625 52.386719 36.953125 49.601562 C 37.464844 47.550781 37.453125 48.632812 38.746094 47.449219 C 39.1875 47.046875 39.355469 46.65625 39.253906 46.28125 C 39.058594 46.082031 38.695312 46.164062 38.171875 46.523438 C 37.230469 47.164062 37.140625 47.605469 35.855469 46.910156 C 34.8125 46.363281 33.808594 45.300781 32.839844 43.722656 C 31.066406 41.164062 28.863281 39.015625 26.234375 37.273438 C 24.78125 36.304688 23.34375 35.519531 21.925781 34.921875 C 20.902344 34.492188 21.097656 34.152344 22.160156 34.5625 C 24.785156 35.578125 27.144531 37.070312 29.046875 39.175781 C 29.765625 39.910156 30.261719 39.820312 30.085938 39.265625 C 30 39 29.730469 38.621094 29.570312 38.363281 C 28.910156 37.320312 27.640625 36.007812 25.625 34.464844 C 27.183594 34.273438 29.007812 34.550781 31.09375 35.308594 C 31.511719 36.050781 31.925781 36.566406 32.339844 36.859375 C 31.964844 38.476562 32.613281 40.183594 34.289062 41.976562 C 34.074219 42.480469 33.90625 42.84375 33.785156 43.066406 C 33.644531 43.363281 33.742188 43.492188 34.074219 43.449219 M 35.40625 36.386719 C 36.628906 36.796875 37.570312 37.929688 38.230469 39.78125 C 38.550781 40.6875 38.382812 41.125 37.730469 41.089844 C 37.109375 41.207031 36.46875 41.320312 35.816406 41.429688 C 36.515625 41.042969 36.800781 40.523438 36.675781 39.878906 C 38.230469 39.78125 37.332031 37.40625 35.214844 36.558594 C 35.046875 36.425781 35.109375 36.367188 35.40625 36.386719 M 21.324219 35.902344 C 25.859375 38.203125 29.773438 41.847656 33.074219 46.835938 C 30.902344 45.871094 28.828125 45.992188 26.851562 47.199219 C 29.011719 44.679688 28.625 44.394531 25.683594 46.347656 C 24.933594 44.570312 23.617188 42.832031 21.734375 41.132812 C 20.550781 40.242188 19.660156 39.167969 19.074219 37.914062 C 18.449219 36.03125 19.199219 35.363281 21.324219 35.902344 M 25.683594 51.582031 C 26.128906 50.90625 26.703125 50.292969 27.40625 49.742188 C 27.875 49.503906 28 49.582031 27.777344 49.984375 C 27.253906 51.421875 27.667969 51.65625 29.023438 50.6875 C 31.003906 49.800781 31.851562 49.828125 31.570312 50.757812 C 30.886719 51.8125 29.945312 52.628906 28.746094 53.207031 C 25.28125 54.710938 24.257812 54.167969 25.683594 51.582031 "/>
</g>
</svg>
