<?xml version="1.0" encoding="utf-8"?>
<!-- Generator: Adobe Illustrator 23.1.0, SVG Export Plug-In . SVG Version: 6.00 Build 0)  -->
<svg version="1.1" id="Слой_1" xmlns="http://www.w3.org/2000/svg" xmlns:xlink="http://www.w3.org/1999/xlink" x="0px" y="0px"
	 viewBox="0 0 141.5 67.4" style="enable-background:new 0 0 141.5 67.4;" xml:space="preserve">
<style type="text/css">
	.st0{fill-rule:evenodd;clip-rule:evenodd;fill:#00A86B;}
	.st1{fill:#00A86B;}
</style>
<g id="surface1">
	<path class="st0" d="M21.3,62.8c3.1,2.7,6.6,2.3,10.5-1.1c1.5-1.5,2.7-3.4,3.4-5.6c0.4-0.7,0.6-0.7,0.5,0.1c-0.5,2.5-1.7,4.5-3.4,6
		c-2.5,2.2-5.2,3.1-8,2.8C22.3,64.7,21.3,64,21.3,62.8 M12.3,42.9c0,0.4-0.1,0.7-0.3,0.7s-0.3-0.3-0.3-0.7c0-0.4,0.1-0.7,0.3-0.7
		S12.3,42.6,12.3,42.9 M54.8,49.9c0.4,0.1,0.9,0.1,1.4,0.1c-0.2,0.9-0.4,1.6-0.6,2C55.4,51.3,55.1,50.6,54.8,49.9 M54,54.6
		c0.2,0,0.5,0,0.3,0.3c-0.1,0.2-0.3,0.5-0.7,1.1c-0.4,0.6-0.7,0.5-0.8-0.1l-0.2-1.3C53.3,54.6,53.8,54.6,54,54.6 M51.8,58.2
		c2.3,0.5,3.8,1.2,4.9,3.1c1,1.6,1.7,2.6,3.2,3.9c0.6,0.4,0.5,0.6-0.1,0.6c-2.1,0.1-4.1-0.3-5.7-1.2c-1.3-0.6-2.6-1.9-3.7-2.9
		c-0.3-0.4-0.4-1,0.3-0.5c1.9,2.3,3.7,3.5,5.4,3.6c0.6,0,0.4-0.3,0-0.5l-2.4-1.3c-0.7-0.4-0.1-0.4,0.3-0.3c0.3,0.1,0.6,0.1,1,0.1
		c0.3,0,0.3,0,0-0.2c-0.3-0.2-0.9-0.6-1.7-1.1C53,61.2,53,61,53.3,61l1.5,0c0.3,0,0.4,0,0.1-0.3c-0.4-0.3-1.2-0.6-1.6-0.8
		c-0.7-0.4-1.3-0.7-1.6-0.9C50.8,58.5,50.9,58.2,51.8,58.2 M34.1,44.4c0.3,0,0.6,0.3,0.6,0.7c0,0.4-0.3,0.7-0.6,0.7
		c-0.3,0-0.6-0.3-0.6-0.7C33.5,44.7,33.8,44.4,34.1,44.4 M15.3,34.5c0.3,0,0.5,0.3,0.5,0.6c0,0.3-0.2,0.6-0.5,0.6
		c-0.3,0-0.5-0.3-0.5-0.6C14.8,34.8,15,34.5,15.3,34.5 M9.9,37.6c0.3,0,0.5,0.2,0.5,0.5s-0.2,0.5-0.5,0.5s-0.5-0.2-0.5-0.5
		S9.6,37.6,9.9,37.6 M9.6,28.6c0.3,0,0.5,0.2,0.5,0.5s-0.2,0.5-0.5,0.5c-0.3,0-0.5-0.2-0.5-0.5S9.4,28.6,9.6,28.6 M10.7,31.6
		c0.2,0,0.4,0.2,0.4,0.4s-0.2,0.4-0.4,0.4s-0.4-0.2-0.4-0.4S10.5,31.6,10.7,31.6 M43.3,11.4c0.4,2.6,0,5.4-1.2,8.4
		c-0.8,1.6-1.5,2-1.7,3.8c-0.1,1.1,0.2,2.1,1.3,1.6c1-0.4,1,0,0.3,0.5c-0.9,0.6-1.5,0.6-0.6,1.6c0.6,0.5,1.6,1.2,3.1,2.1
		c4,2,6.4,3.4,7.3,4.2c7.5,6.8,7.1,15.6,2.4,24c1.8,1.1,3,2.2,3.6,3.4c1.1,1.9,2.2,3.3,3.2,4.2c1.4,1.1,1.3,1.7-0.2,2
		c-2.9,0.5-5.5,0-7.6-1.5c-1.6-1-2.9-2.3-4-3.8c-0.3-0.3-0.6-0.4-0.9-0.1c-1.9,1.7-4.5,2.8-7.9,3.3c-2.8,0.5-6.1,0.6-9.9,0.3
		c-3,1-5.7,1-8.1,0c-1.7-1-2.4-2.1-2.1-3.5c0.4-1.2,1.3-2.3,2.7-3.4c1-0.7,1.8-2,1.4-3.3c-0.7-0.1-1.5-0.4-2.3-0.9
		c-0.9-0.3-1.5,0-1.7,1c-0.5,5.8-6.5,2.8-5.4-0.7c-1.7-0.2-2-1.5-3.2-2.1c-1.6-1.2-2.5-2.9-2.6-5c0-0.3,0-0.7,0-1.1
		c0.1-1.1,0.6-2.2,0.9-3.3c-0.1-0.8,0.1-1.3,0.5-1.5c0.2-0.5,0.4-1,0.8-1.7c0.2-0.7-0.7-0.2-1-0.1c-0.4,0.2-0.8,0.4-1.1,0.7
		c-1.2,1.1-2.7-0.1-2.3-1.4c0.9-0.9,1.7-1.7,2.5-2.4c0.2-0.2,0.2-0.3,0.6-0.3c1.3-0.2,1.9,0.6,2,2.3c0.7-1.6,1.2-2.7,1.3-3.3
		c0.3-0.6,0.4-1.7,0.5-3.3c-0.6-1-0.6-2-0.1-3.2c-0.9,0-1.6-0.1-2.3-0.3c-0.4,0.6-0.4,1.2-0.1,2c0.8,1,0.9,1.7,0.4,2.2
		c-0.8,0.6-1.5,0.6-2,0c-0.2-0.4-0.3-0.9-0.2-1.6c-0.2-0.2-0.4-0.4-0.8-0.6c-0.4-0.2-0.6-0.6-0.6-1c0.1-0.9,0.6-2-1.1-1.8
		c-3.7-0.4-6-1.1-6.8-1.9c-0.7-0.7-0.1-1.4,0.5-2c-0.1,0.7,0.2,1.2,1.1,1.7c1.8,1,5.5,1.6,11.2,1.9c-0.2-0.5-0.4-0.9-0.7-1.3
		c-5.6-0.7-8.4-1.3-8.5-1.9c-0.1-0.4,0.3-0.7,1.4-0.9c-0.3,0.4-0.2,0.7,0.3,0.8c1.4,0.5,3.5,0.9,6.5,1l0-0.3c-2-0.1-3.2-0.4-3.8-0.8
		c-0.1-0.6,0.5-1,1.8-1.2c-0.7,0.4-0.8,0.8-0.3,1c0.5,0.2,1.2,0.4,2.3,0.4c0.1-2.2,1.1-3.9,3.1-5.1c0.2-1.8,0.5-3.2,1-4.4
		c0.5-0.7,0.9-0.6,1.2,0.3l-0.5,4.3c1.4,1.2,2.1,2.8,2,4.7c2-0.2,2.8-0.6,2.3-1.4c0.7,0.1,1.8,0.5,0.8,1.1c-0.7,0.4-1.7,0.8-3,0.9
		c-0.1,0.2-0.2,0.4-0.3,0.7c3.5-0.1,5.6-0.4,6.2-0.9c0.3-0.2,0.3-0.5,0.2-0.8c0.6,0.3,1.3,0.9,0.5,1.5c-0.5,0.3-1.8,0.6-4,0.9
		c-1.1,0.2-2.2,0.2-3.2,0.1c-0.3,0.6-0.6,1.1-0.9,1.4c4.4-0.1,8.1-0.4,11.2-1c2.5-0.3,2.7-1.1,0.6-2.4L31,24
		c-2.4-2.1-4.1-4.7-5.2-7.8c7.9,5.3,12.7,3.4,16.5-8.8C42.9,7.5,43.2,8.8,43.3,11.4 M41.9,15c-0.3,4-2.7,7-2.8,9.8
		c-4-1.1-4.1-0.3-7.1-4.2c-0.3-0.6-0.1-0.7,0.3-0.3c0.7,0.5,1.4,1.3,2.4,2.4c0.3,0.3,0.6,0.6,0.9,0.8c0.5,0.4,0.6,0.1,0.3-0.3
		l-0.2-0.4c-0.4-0.8-0.7-1.5-0.9-2c-0.3-1.3,0.7-1.6,1.1-0.4c0.2,0.5,0.4,1.3,0.6,2.1c0.1,0.9,0.9,1,0.9-0.1c0-2,0-3.2,0.2-3.6
		c0.3,0.1,0.4,0.9,0.5,2.2c0,0.9,0.3,0.8,0.6,0c0.2-0.6,0.4-1.9,0.6-3.8c0-0.2,0.1-0.2,0.1,0l-0.1,2.6c0,1,0.3,1.1,0.6,0.2
		c0.6-1.6,1.1-3.4,1.5-5.1C41.8,14.2,42.1,14.2,41.9,15 M17.3,25.3c1.5-0.3,1.1,0.3,0.5,0.3c-1.8,0.1-3.5,0.1-5.2-0.2
		C13.9,25.4,16.1,25.5,17.3,25.3 M13.7,26.5l3,0c-0.2,0.7-0.8,1.1-1.5,1.1C14.6,27.6,14,27.2,13.7,26.5 M14.8,20.7
		c0.3,0.1,0.3,0.8,0,1.5c-0.3,0.7-0.7,1.2-0.9,1.1c-0.3-0.1-0.3-0.8,0-1.5C14.2,21.1,14.6,20.6,14.8,20.7 M20.3,28.7
		c4.3-0.2,7.8-0.7,10.6-1.6c1-0.3,1.8-0.9,2.3-1.6c2.2,0.5,4.3,0.6,6.1,0.3c0.3,0.4-1,0.9-3.8,1.6c-3.9,1.2-8.9,2-14.8,2.3
		C20.7,29.2,20.5,28.9,20.3,28.7 M47.1,31.9c0.8,0.4,0.2,0.9,1.4,1c1,0-0.1,1.2,0.8,1.2c0.5-0.1,1.4-0.2,1.7,0.2
		c0.1,0.1,0.2,0.3,0.4,0.5c0.7,0.8-0.5,0.5-0.9,0.4c-0.8-0.4-1.1,0.3-0.3,0.7c1,0.4,0.7,0.5,0.8,1.1c0,0.3,0.4,0.3,1,0.2
		c0.2-0.1,0.5-0.1,0.8,0c0.7,0.2,1.3,0.8,1.8,1.8c0.2,0.3,0.6,1-0.2,0.6c-0.2-0.1-0.3-0.1-0.5-0.2c-1.7-0.8-4-1.2-1.3,0.2
		c0.3,0.1,0.8,0.5,0.4,0.8c-0.3,0.2-0.6,0.5-1,0.7c-1.6-0.9-1.8-0.8-0.8,0.4c0.1,0.2,0.1,0.3,0,0.4c-1.1,1.3-0.8,1.1,0.8,0.3
		c1.7,1.3,3.2,3.2,4.6,5.7c0.4,0.7,0.2,0.7-0.2,0.8c-0.4,0.2-1,0.4-1.9,0.4c-0.8-1.4-1.7-2.6-2.8-3.6c-1-1-1.6-0.7-0.7,0.3
		c0.9,1.1,1.6,2,2.1,2.9c0.2,0.4,0.1,0.5-0.4,0.5c-0.5,0-0.8,0.2-0.9,0.7l1.9,0c0.2,0.6,1,2.6,0.9,3.2c0,0.2-0.2,0.3-0.3,0.3l-1.9,0
		c-0.4-1.3-0.8-2.2-1.2-2.7c-0.7-0.8-0.9-0.7-0.7,0.3l0.9,2.1c-0.4,0-1.2-0.1-2.3-0.4c-0.5-0.1-0.6,0-0.3,0.5
		c0.4,0.4,1.3,0.8,2.9,1.1c0.2,0.4,0.3,0.8,0.4,1.3c0.4,1.4-0.9,2.2-1.7,0.1c-0.2-0.5-0.5-0.5-0.7,0c-0.2,0.7-0.2,1.4-0.1,2.3
		c0.1,1.3-1,2.1-3.3,2.4c-0.6,0.1-0.6,0.4,0,0.7c0.3,0.2,0.3,0.4,0.1,0.5l-0.6,0.4c-1.4,0.9-3.1,1.5-5.2,1.9
		c-0.7,0.1-0.7-0.1-0.1-0.5c1.6-1.3,2.8-2.7,3.6-4.1c0.6-0.8,1.2-1.7,1.8-2.5c0.8-1.2,1.2-2.5,1.1-3.9c-0.2-2.2-1.5-4.7-4-7.3
		c-0.5-0.4-0.5-0.8,0.1-1.2c2.6-1.9,4.1-3.9,4.5-6c0.2-2.4-0.2-4.5-1.2-6.1c-0.5-0.5-0.8-0.5-1,0.1c-0.1,0.7-0.3,0.8-0.8,0.1
		c-0.5-0.7-1.3-1.4-2.3-2c-0.8-0.4-1.5-0.8-1.9-1.2c-0.9-0.9-1.1-1.6-0.9-1.7c0.4-0.2,1.3,1,1.8,1.2C43.1,29.9,45.1,31,47.1,31.9
		 M36.9,28.5c0.3-0.9,0.9,0,1.1,0.3c0.5,0.6,1.1,1.1,1.7,1.5c1.5,0.8,2.7,1.8,3.5,2.7c1,1.2,1.4,2.9,1.4,5c-0.1,2.1-1.1,4-2.8,5.7
		c-0.2,0.2-0.4,0.4-0.7,0.3c-0.6-0.2-1.7-0.6-0.7-1.2c4.3-2.7,1.6-6.2,3.3-6.1c0.3,0,0.3-0.1,0.2-0.4c-0.6-0.4-0.7-0.9-0.4-1.3
		c0.1-0.6-0.1-0.7-0.5-0.4c-0.2,0.4-0.4,0.6-0.9,0.9c-0.4,0.1-0.7-0.2-0.9-0.8c0-0.4,0.2-0.7,0.5-1c0.3-0.4,0.3-0.2-0.1-0.5
		c-0.2-0.2-0.3-0.4-0.3-0.6c0-0.2,0.1-0.4-0.3-0.2c-0.4,0.2-1.6,2-1.5,0.1c0.1-0.8-0.1-1-0.7-0.7c-0.4,0.3-0.9,0.2-1.3-0.4
		C36.9,30.4,36.7,29.5,36.9,28.5 M20.3,30.5c5,0.3,9.8-0.3,14.6-1.8c0.3,1.4,1.2,3.1,2.9,5c1.1,1,3.8,3.5,4,5.1
		c0.2,2.1-2.7,3.7-4.1,2.8c-1.3-0.7-2.8-0.8-4.3-0.3c-0.6,0.6-1.4,0.6-2.2,0.1c-1.9-0.7-4-0.9-6.2-0.8c-1.5,0.3-2,0.3-3.5,0.2
		c-0.7,0-1.4,0-2.3,0.2c-0.1-0.6-0.6-1.1-1.3-1.1c-0.6,0-1.2,0.4-1.3,1.1c-0.1,0.6,0.2,1.3,0.8,1.5c0.2,0.2,0.2,0.4,0,0.6
		c-0.2,1.6,0.7,3.5,2.8,5.7c1.7,1.6,3.1,3.3,4,4.9c-1-0.5-2.4-1.2-3.5-0.9c-0.8,0.2-1.4,0.9-1.6,2c-0.2,4.2-4.7,1.9-2.8-1
		c0.2-0.3,0.1-0.7,0-1.1c-0.2-0.6-0.7-1.1-1.3-1.3c-0.5-0.2-0.7,0.5-0.4,0.8c0.2,0,0.4,0.1,0.4,0.3c0.1,0.2,0,0.4-0.2,0.5
		s-0.4,0.1-0.6,0c-0.2-0.1-0.3-0.3-0.2-0.5c-0.1-0.6-1-0.5-1.6-1c-2.1-1.9-2.6-4.3-1.6-7.3c0.6,0.6,1.5,0.7,2.2,0.2
		c0.7-0.5,0.9-1.4,0.6-2.2c-0.4-0.8-1.2-1.1-2-0.9c1.2-2.4,2-4.2,2.4-5.2c0.4,0.6,1.1,0.9,1.8,0.7c0.7-0.2,1.2-0.7,1.3-1.4
		c0.1-0.7-0.2-1.4-0.8-1.8c-0.6-0.4-1.4-0.3-1.9,0.1c-0.1-0.4-0.1-0.9,0-1.5c0.6-0.6,0.9-1.7,1.1-3.4c0.1-0.2,0.4-0.4,0.9-0.4l2,0
		c-0.1,0.1-0.2,0.2-0.2,0.4c-0.2,0.6,0,1.2,0.5,1.6C19.2,31,19.9,30.9,20.3,30.5 M52.5,41.6c1-0.6,1.9-0.6,2.7,0.2
		c0.3,0.3,0.5,0.6,0.6,0.8c0.4,0.5,0.6,1.6-0.4,1.3C54.7,43.6,53.7,42.8,52.5,41.6 M42.1,47.9c1.1,1,1.8,1.8,2.3,2.6
		c-1.5-0.7-3-1.3-4.2-1.7c-0.3-0.1-0.5-0.4-0.6-0.8c-0.2-1.5-0.7-2.8-1.6-3.8c-1.6-1.8-3.2-2.1-4.8-0.8c-0.6,0.3-0.8,0-0.3-0.5
		c0.8-0.6,1.7-0.9,2.7-0.7c1.3,0.4,2.7,1.8,4.1,4.3c0.4,0.6,0.9,0.4,0.6-0.4l-0.2-0.7c-0.1-0.3,0-0.3,0.3-0.1
		c0.6,0.6,1.2,1.1,1.8,1.6c0.3,0.3,0.3,0.5-0.1,0.6C41.8,47.2,41.7,47.5,42.1,47.9 M34.1,50.8c3.9-1.5,7.5-1.3,10.6,0.5
		c0.4,0.2,0.4,0.2,0.5,0.7c1,3.1-0.5,5.4-4.8,7.1c-1.1,0.4-1,0.9,0.1,0.8c0.8-0.1,1.3-0.2,1.6-0.1c-2.6,3.6-6,5-10,4.3
		c2.5-2,4.1-4.3,4.8-7.1c0.5-2.1,0.5-1,1.8-2.2c0.4-0.4,0.6-0.8,0.5-1.2c-0.2-0.2-0.6-0.1-1.1,0.2c-0.9,0.6-1,1.1-2.3,0.4
		c-1-0.5-2-1.6-3-3.2c-1.8-2.6-4-4.7-6.6-6.4c-1.5-1-2.9-1.8-4.3-2.4c-1-0.4-0.8-0.8,0.2-0.4c2.6,1,5,2.5,6.9,4.6
		c0.7,0.7,1.2,0.6,1,0.1c-0.1-0.3-0.4-0.6-0.5-0.9c-0.7-1-1.9-2.4-3.9-3.9c1.6-0.2,3.4,0.1,5.5,0.8c0.4,0.7,0.8,1.3,1.2,1.6
		c-0.4,1.6,0.3,3.3,1.9,5.1c-0.2,0.5-0.4,0.9-0.5,1.1C33.6,50.8,33.7,50.9,34.1,50.8 M35.4,43.8c1.2,0.4,2.2,1.5,2.8,3.4
		c0.3,0.9,0.2,1.3-0.5,1.3c-0.6,0.1-1.3,0.2-1.9,0.3c0.7-0.4,1-0.9,0.9-1.6c1.6-0.1,0.7-2.5-1.5-3.3C35,43.8,35.1,43.8,35.4,43.8
		 M21.3,43.3c4.5,2.3,8.4,5.9,11.8,10.9c-2.2-1-4.2-0.8-6.2,0.4c2.2-2.5,1.8-2.8-1.2-0.9c-0.8-1.8-2.1-3.5-3.9-5.2
		c-1.2-0.9-2.1-2-2.7-3.2C18.4,43.4,19.2,42.8,21.3,43.3 M25.7,59c0.4-0.7,1-1.3,1.7-1.8c0.5-0.2,0.6-0.2,0.4,0.2
		c-0.5,1.4-0.1,1.7,1.2,0.7c2-0.9,2.8-0.9,2.5,0.1c-0.7,1.1-1.6,1.9-2.8,2.4C25.3,62.1,24.3,61.6,25.7,59"/>
</g>
<g>
	<path class="st1" d="M89.6,35.3c3.1,0,6.2,0.7,9.2,2.2c3.1,1.5,5.5,3.4,7.4,5.7c1.9,2.3,2.8,4.5,2.8,6.7c0,3.1-1.1,5.4-3.4,7
		c-2.2,1.5-5.2,2.3-8.9,2.3c-10,0-18.9-4.6-26.8-13.8c-2.8-3.2-6-7.8-9.6-13.8c-1.3-2.1-2.1-3.4-2.4-3.9c0,0.2,0,0.3,0,0.4
		c0,0.4,0,1.1-0.1,2c0,0.3-0.1,0.7-0.1,1.1c0,0.4-0.1,0.6-0.1,0.7c0.2,0.4,0.3,0.8,0.3,1.3s-0.1,0.9-0.4,1.2
		c-0.3,0.3-0.5,0.5-0.8,0.5c-0.6,0-1-0.4-1.1-1.3c0-0.3,0.1-0.8,0.2-1.6c0.2-0.8,0.2-1.5,0.2-2.1c0-1.8-0.1-3.5-0.3-5.1
		c-0.2-1.6-0.5-3-1-4.4c-0.5-1.4-1.1-2.5-2-3.3c-0.9-0.8-1.9-1.2-3.2-1.2c-1.4,0-2.5,0.5-3.1,1.5c-0.6,1-1,2.1-1,3.4
		c0,1.8,0.6,3.5,1.8,4.9c1.2,1.5,2.8,2.5,4.7,3.1c0.3,0,0.5,0,0.7-0.1l0.1,0c0.1,0,0.1,0,0.1,0.1c0,0.1,0,0.2-0.1,0.3
		c-1.3,0-2.4-0.3-3.5-0.8c-1-0.5-1.8-1.2-2.4-2c-0.6-0.8-1-1.7-1.3-2.6c-0.3-0.9-0.4-1.8-0.4-2.7c0-0.6,0.1-1.1,0.2-1.7
		c0.1-0.6,0.3-1.2,0.7-1.8c0.3-0.7,0.9-1.2,1.7-1.6c0.8-0.4,1.7-0.6,2.8-0.6c1.2,0,2.3,0.3,3.2,0.9c0.9,0.6,1.7,1.3,2.2,2.1
		c0.5,0.8,1,1.8,1.3,2.9c0.4,1.1,0.6,2,0.7,2.9c0.1,0.8,0.2,1.6,0.2,2.3v0.2c0.8-1,1.9-2.6,3.3-4.9c1.5-2.3,2.8-4.4,4-6.2
		c1.2-1.9,2.5-3.6,3.9-5.1c1.4-1.6,2.6-2.4,3.5-2.6c0.2,0,0.4,0,0.7,0c0.9,0,1.7,0.2,2.4,0.6c0.7,0.4,1.1,0.8,1.1,1.3v0.1
		c0,0.3-0.2,0.5-0.5,0.7c-0.2-0.8-0.7-1.2-1.5-1c-1.1,0.2-3.7,2.6-7.7,7.4c-4,4.7-6.7,8.3-8,10.6c0.5,0.6,1.6,1.9,3.4,4.1
		s3.5,4.3,5.2,6.4c1.7,2.1,3.8,4.5,6.3,7.1c2.5,2.6,4.9,4.9,7.2,6.9c2.3,1.9,4.7,3.6,7.3,4.9s5,2,7.1,2c3.6,0,6.5-0.8,8.8-2.5
		c2.2-1.6,3.4-4.1,3.4-7.3c0-1.3-0.5-2.6-1.4-4.1c-0.9-1.5-2.2-2.8-3.8-4.2c-1.6-1.3-3.8-2.4-6.4-3.3c-2.7-0.9-5.5-1.3-8.6-1.3
		c-1.5,0-3,0.4-4.4,1.2c-1.4,0.8-2.2,1.6-2.5,2.4c0,0.1-0.1,0.1-0.3,0.1c-0.1,0-0.2-0.1-0.2-0.2v-0.1c0-0.1,0-0.2,0.1-0.3
		C82.5,36.5,85.5,35.3,89.6,35.3z"/>
	<path class="st1" d="M67.8,27.6c0,0.3,0,0.5,0,0.8c0,0.3,0,0.6,0.1,0.8c0,0.3,0,0.5,0.1,0.7c0,0.2,0,0.3,0,0.4
		c0.1-0.4,0.4-1,0.7-1.6s0.7-1.3,1-2c0.4-0.7,0.7-1.3,1.1-2c0.4-0.6,0.7-1.2,1-1.6c0.5-0.8,0.9-1.5,1.1-2s0.6-0.7,1-0.7
		c0.2,0,0.3,0,0.3,0.1c0,0.1,0.1,0.2,0.3,0.3c0.1,0.1,0.2,0.3,0.2,0.6c0,0.3,0,0.6,0,1.1c0,0.5,0,1.1-0.1,1.9c0,0.8-0.1,1.6-0.2,2.4
		c-0.1,0.8-0.1,1.6-0.2,2.4c-0.1,0.8-0.1,1.5-0.1,2c0,0.2,0,0.4,0,0.6c0,0.2,0.1,0.3,0.1,0.4c0,0.6,0.1,1,0.4,1
		c0.1,0,0.4-0.1,0.7-0.3c0.3-0.2,0.6-0.6,0.9-1.1c0.6-0.9,1.6-2.8,3.2-5.7c0.3,0,0,1-0.9,2.9c-0.5,1-0.9,1.9-1.4,2.9
		c-0.5,1-1,1.9-1.7,2.9c-1.3,1.9-2.2,2.9-2.8,2.9c-0.7,0-1.1-0.8-1.1-2.5c0-0.3,0-0.5,0.1-0.8c0.1-0.3,0.1-0.6,0.2-0.9
		c0-0.2,0.1-0.5,0.1-1.1c0.1-0.5,0.1-1.2,0.2-2c0-0.4,0.1-0.9,0.1-1.3s0.1-0.9,0.1-1.4c0-0.4,0.1-0.8,0.1-1.2c0-0.3,0-0.6,0.1-0.8
		c0-0.3,0.1-0.5,0-0.7c0-0.2-0.1-0.4-0.1-0.5c0-0.2,0-0.3-0.1-0.3c-0.1,0-0.3,0.1-0.6,0.5s-0.7,1-1.1,1.8c-0.4,0.8-0.9,1.7-1.5,2.8
		c-0.5,1.1-1.1,2.3-1.7,3.6c0,0-0.1,0.1-0.3,0.2C67,33,67,33.1,67,33.1c-0.2,0.2-0.3,0.3-0.5,0.3l-1.2-1.6c-0.2-0.7-0.2-1.5,0-2.2
		c0.2-0.8,0.5-1.4,0.9-1.9s0.7-0.8,1.1-0.9C67.6,26.7,67.8,26.9,67.8,27.6z"/>
	<path class="st1" d="M92,29.4c-0.4,0.8-0.7,1.5-1.1,2.2c0.8-0.1,1.5-0.6,2.3-1.3c0.8-0.7,1.5-1.7,2.2-2.9c-0.1,0.8-0.3,1.4-0.6,2
		c-0.4,0.6-0.8,1.1-1.3,1.5c-0.5,0.4-1,0.8-1.6,1c-0.6,0.3-1.1,0.5-1.6,0.6c-0.6,0.9-1.1,1.6-1.7,2.1c-0.6,0.5-1.2,0.8-1.8,0.8
		c-1.1,0-1.8-0.4-2.4-1.2c-0.5-0.8-0.8-1.8-0.8-3.1c0-0.4,0-0.8,0.1-1.2c0-0.4,0.1-0.8,0.2-1.2L82.2,29l-0.6,5
		c-0.2,0.5-0.4,0.8-0.5,0.9c-0.1,0.2-0.3,0.3-0.6,0.3c-0.1,0-0.2-0.1-0.3-0.3c0,0-0.1-0.2-0.2-0.3c-0.1-0.2-0.2-0.3-0.2-0.4
		c-0.2-0.2-0.3-0.6-0.3-1l0.1-0.4c0-0.2,0.2-0.7,0.4-1.4c0.2-0.7,0.5-1.4,0.8-2.2s0.5-1.5,0.8-2.3s0.4-1.2,0.4-1.5
		c0-0.1,0-0.2,0-0.3c-0.5,1-1,1.9-1.5,2.8c-0.5,0.9-1,1.7-1.5,2.6c-0.3,0.7-0.6,1-0.7,0.9c-0.1,0-0.2,0.1-0.3,0.3
		c-0.1,0.2-0.2,0.3-0.3,0.1c0.2-0.4,0.5-0.8,0.8-1.3c0.3-0.5,0.6-1.2,0.9-1.9l2.2-4.1c0.4-0.7,0.7-1.2,0.9-1.4
		c0.2-0.4,0.4-0.6,0.5-0.6c0.1,0,0.2,0.2,0.2,0.6l0,0.4c0,0-0.1,0.2-0.1,0.3l-0.5,4.1l1.7-0.1c0.2-0.8,0.5-1.5,0.9-2.3
		c0.4-0.7,0.8-1.4,1.3-1.9c0.5-0.5,1-1,1.6-1.3c0.6-0.3,1.2-0.5,1.9-0.5c0.6,0,1.1,0.1,1.6,0.4c0.5,0.3,0.8,0.5,0.9,0.7
		c0.2,0.1,0.3,0.3,0.4,0.5s0.2,0.4,0.2,0.6c0,0.2,0,0.3-0.1,0.4c-0.1,0.1-0.2,0.1-0.4-0.1c-0.3-0.2-0.5-0.4-0.6-0.6
		c-0.1-0.2-0.3-0.4-0.5-0.5c-0.2-0.2-0.4-0.3-0.7-0.4s-0.7-0.2-1.3-0.2c-0.5,0-1,0.3-1.5,0.9c-0.5,0.6-0.8,1.3-1.2,2.2
		c-0.3,0.9-0.6,1.8-0.8,2.8c-0.2,1-0.3,1.9-0.3,2.7c0,2.1,0.5,3.1,1.4,3.1c0.5,0,1.1-0.3,1.6-1c0.5-0.7,1-1.7,1.5-3.2
		c-0.4-0.4-0.5-1-0.5-1.9c0-0.5,0.1-0.9,0.2-1.4c0.1-0.5,0.2-0.9,0.4-1.3c0.2-0.4,0.3-0.7,0.6-0.9c0.2-0.2,0.4-0.4,0.6-0.4
		c0.2,0,0.4,0.2,0.7,0.7c0.3,0.4,0.4,1.1,0.4,2c0,0.1,0,0.2,0,0.4c0,0.2,0,0.4-0.1,0.7c0,0.3-0.1,0.5-0.2,0.8
		C92.2,29,92.1,29.2,92,29.4z"/>
	<path class="st1" d="M108.4,27c0,1-0.3,2.3-1.1,3.8s-1.8,2.9-3,4.2c-1.3,1.2-2.4,1.8-3.5,1.8c-1.2,0-2.2-0.5-3-1.4
		c-0.8-1-1.2-2.1-1.2-3.3c0-1,0.3-1.9,0.9-2.8c0.6-0.8,1.6-1.5,2.8-1.9c-1.3-0.1-2.2-0.4-2.7-0.9c-1.7,1.2-2.9,2.7-3.7,4.2
		c-0.1-0.2-0.1-0.4-0.1-0.8c0-1.2,1.1-2.5,3.4-3.9c-0.1-0.1-0.1-0.3-0.1-0.5c0-1,0.6-2.1,1.8-3.1c1.2-1.1,2.7-1.6,4.4-1.6
		c0.8,0,1.4,0.1,1.8,0.4c0.4,0.3,0.5,0.7,0.4,1.2c0,0.1-0.3,0.3-0.9,0.5c-0.6,0.2-1.4,0.6-2.4,1c-1.1,0.4-2,0.9-2.9,1.4
		c0,0.5,0.3,0.9,0.8,1.3c0.5,0.3,1.1,0.5,1.9,0.5h0c0.5,0,1,0.1,1.4,0.3c0.4,0.2,0.6,0.5,0.6,0.7c0,0.5-0.8,0.7-2.3,0.8
		c-1,0-1.8,0.3-2.5,1c-0.7,0.7-1,1.4-1,2.2c0,0.6,0.2,1.1,0.7,1.5c0.4,0.4,1.1,0.6,2,0.6c0.8,0,1.4-0.1,1.8-0.2s1-0.4,1.6-0.8
		c0.6-0.4,1.3-1.2,1.9-2.2C106.8,30.1,107.6,28.7,108.4,27z M99,19.2c-0.1,0-0.2,0-0.2-0.1l-0.2-0.4l-0.5-0.3L98,18.3v-0.1l0.1-0.1
		v-0.1v-0.4c-0.1,0-0.1-0.2,0.1-0.3l0.1-0.1c0.4-0.6,0.8-0.9,1.3-0.9c0.1,0,0.2,0,0.3,0.1l0.1,0.1c0,0,0.2,0.2,0.5,0.5
		c0.3,0.2,0.4,0.6,0.4,1c0,0.2-0.1,0.4-0.4,0.6c0,0,0,0.1,0,0.1c0,0,0,0.1,0,0.1c0,0.1-0.1,0.2-0.3,0.4c-0.3,0.1-0.5,0.1-0.8,0.1
		h-0.1c-0.1,0.1-0.2,0.1-0.3,0L99,19.2L99,19.2L99,19.2z M103.1,21.3c-0.8,0-1.6,0.4-2.3,1.1c-0.7,0.7-1.2,1.5-1.4,2.3
		c0.4-0.2,0.8-0.4,1.4-0.7c0.5-0.3,1-0.5,1.3-0.7c0.3-0.2,0.7-0.3,1-0.5c0.3-0.2,0.6-0.4,0.8-0.5s0.3-0.3,0.3-0.4
		c0-0.1-0.1-0.2-0.3-0.4C103.7,21.4,103.4,21.3,103.1,21.3z M104.7,19.3c-0.1,0.1-0.2,0.1-0.3,0c0-0.1-0.2-0.1-0.5-0.1l-0.4-0.1
		c-0.3,0-0.4,0-0.4-0.1h-0.2c0,0-0.1-0.1-0.1-0.1c0,0-0.1-0.1-0.1-0.1c0,0-0.1-0.1-0.2-0.1s-0.1-0.1-0.1-0.1c0-0.6,0.1-1.1,0.4-1.5
		l0.1-0.1c0.2-0.2,0.4-0.3,0.5-0.3l0.4-0.1l0.1-0.1l0.4,0.1l0.1,0.2l0.1,0.1l0.1,0.2h0l0.1,0.4c0.2,0.1,0.3,0.2,0.4,0.4
		c0.1-0.2,0.2-0.2,0.3,0c0,0.1,0.1,0.3,0.1,0.5c0,0.2,0,0.4-0.1,0.6c0,0.1-0.1,0.3-0.2,0.3v0.1c0,0.1-0.1,0.2-0.3,0.2L104.7,19.3z"
		/>
	<path class="st1" d="M118.6,37.2l-0.9,0.9c-0.6,0-1-0.1-1.4-0.3c-0.4-0.2-0.7-0.5-0.8-0.8c0-0.1-0.1-0.3-0.1-0.4
		c0-0.5,0.2-1.3,0.6-2.5c0.4-1.2,0.6-1.8,0.6-2c0-0.9,0.2-1.7,0.6-2.3c0.1-0.5,0.3-0.9,0.5-1.2l0.6-1.5c0-0.1,0.1-0.2,0.2-0.5
		c0.1-0.2,0.2-0.5,0.3-0.7c0.1-0.3,0.2-0.5,0.3-0.7l0.4-1l0.2-0.4c0,0-0.1,0-0.1,0s-0.1,0-0.1,0.1c-0.1,0-0.5,0.3-1,0.9
		c-0.5,0.7-1.4,2.2-2.8,4.4c-0.1,0.2-0.3,0.5-0.4,0.8c-0.2,0.3-0.3,0.6-0.4,0.8c-0.1,0.2-0.2,0.4-0.3,0.6c-0.1,0.3-0.3,0.5-0.5,0.6
		c0,0-0.1,0.1-0.2,0.1l-0.2-0.2v-0.4c0-0.2,0-0.7,0.1-1.5c0.1-0.8,0.1-1.4,0.1-1.8l0.1-2c0-0.5,0.1-1,0.1-1.5V24c0-0.7-0.1-1-0.4-1
		c-0.2,0-0.6,0.3-1.1,1c-0.4,0.2-1,1.2-1.7,2.8c-0.9,1.6-1.4,2.5-1.4,2.5c-0.1,0.4-0.2,0.8-0.4,1.4c-0.2,0.4-0.5,0.6-0.8,0.6
		c-0.4,0-0.6-0.1-0.6-0.4c0-0.3,0.3-0.7,0.8-1.4c0.2-1,0.4-2,0.4-3.1c0-0.5-0.1-1.1-0.4-1.8c-0.1,0.2-0.2,0.6-0.4,1.1
		c-0.2,0.5-0.3,0.9-0.4,1.3c-0.1,0.3-0.3,0.8-0.6,1.3c-0.3,0.5-0.6,1-0.9,1.4l-0.5,0.3c0.5-1,1.1-2.2,1.6-3.7s0.8-2.3,0.9-2.4
		c-0.1-0.2-0.1-0.5-0.1-0.9c0-0.2,0-0.4,0-0.7c0-0.3,0-0.5,0-0.6c0-1.1,0.2-1.8,0.5-2.4s0.9-0.8,1.7-0.8c0.5,0,0.7,0.3,0.7,1
		c0,0.6-0.2,1.3-0.6,2.1l-0.3,2.2c0,1-0.2,2.3-0.4,4c0.1-0.1,0.2-0.3,0.4-0.6c0.2-0.3,0.3-0.5,0.5-0.7c0,0,0.1-0.2,0.2-0.5
		c0.1-0.3,0.2-0.7,0.4-1c0.7-2.1,1.4-3.4,2.1-4.2c0.1-0.1,0.2-0.2,0.4-0.4c0.2-0.2,0.3-0.3,0.4-0.4c0.1-0.1,0.2-0.1,0.3-0.2
		c0.1-0.1,0.3-0.1,0.4-0.1c0.4,0,0.7,0.3,0.8,0.8v0.4c0,0.8-0.1,2.2-0.2,4.1c-0.2,2.3-0.4,3.9-0.6,4.8l0.1,0.1
		c1.1-2.1,1.8-3.4,2.1-3.8c0.7-1.4,1.4-2.2,2.2-2.6c0.1,0,0.2,0,0.4-0.1s0.3-0.1,0.3-0.1c0.2,0,0.4,0.2,0.6,0.5
		c0.2,0.3,0.3,0.6,0.3,0.8c0,0.2-0.1,0.3-0.2,0.3c0.2,0,0.3,0.2,0.3,0.6c0,0.3,0,0.7-0.1,1.1c-0.1,0.4-0.2,0.6-0.2,0.7
		c0,0.2-0.1,0.5-0.2,0.8c-0.1,0.3-0.1,0.6-0.2,0.7c-0.1,0.3-0.5,1.3-1.3,2.9c-0.7,1.6-1.1,2.5-1.2,2.9c-0.1,0.6-0.1,1-0.1,1.2v0.2
		h0.1c0.5-0.2,1.3-1.1,2.4-2.6c1.1-1.5,2.2-2.9,3-4.2c0.6-0.8,1.1-1.6,1.5-2.4c0.4-0.7,0.6-1.2,0.6-1.5c0.1,0,0.2,0.1,0.2,0.2
		c0,0.5-0.4,1.5-1.3,3.1c-1.7,3.3-3.1,5.6-4.1,6.8C119.4,36.3,118.9,36.9,118.6,37.2z"/>
	<path class="st1" d="M128.8,31.5c0.8,0.1,1.2,0.6,1.2,1.5c0,0.4-0.1,0.8-0.4,1.1s-0.7,0.5-1.2,0.5c-0.4,0-0.7-0.1-0.9-0.4
		c-0.2-0.3-0.3-0.6-0.3-1c0-0.4-0.1-0.6-0.1-0.7c-0.1-0.1-0.1-0.2-0.1-0.4c0-0.1,0.2-0.5,0.5-1.2c0.1-0.2,0.3-0.4,0.5-0.4
		C128.2,30.6,128.5,30.9,128.8,31.5z M129.5,27.8c0.1-0.8,0.5-2.1,1.1-3.9c0.6-1.8,1.2-3,1.8-3.5c0.3-0.3,0.5-0.6,0.5-0.9
		c0-0.1,0-0.2-0.1-0.3c0-0.1-0.1-0.2-0.2-0.3c-0.1-0.1-0.2-0.2-0.3-0.3s-0.2-0.2-0.4-0.3c-0.2-0.1-0.3-0.2-0.4-0.3
		c-0.1-0.1-0.3-0.2-0.5-0.3s-0.4-0.2-0.5-0.3c-0.1-0.1-0.2-0.1-0.3-0.1c-0.7,0-1.2,1.2-1.5,3.5c-0.3,2.4-0.4,4.1-0.3,5.3
		c0,0.4,0,0.8,0,1.3c0,0.5-0.1,0.9-0.1,1c0,0.4,0.1,0.8,0.2,1.1c0.1,0.3,0.2,0.4,0.4,0.4c0.2,0,0.3-0.2,0.4-0.5
		c0.1-0.3,0.2-0.7,0.2-1.2C129.5,28.1,129.5,28,129.5,27.8z"/>
</g>
</svg>
